<?xml version="1.0" encoding="utf-8"?>
<!-- Svg Vector Icons : http://www.sfont.cn -->
<!DOCTYPE svg PUBLIC "-//W3C//DTD SVG 1.1//EN" "http://www.w3.org/Graphics/SVG/1.1/DTD/svg11.dtd">
<svg version="1.1" xmlns="http://www.w3.org/2000/svg" xmlns:xlink="http://www.w3.org/1999/xlink" x="0px" y="0px" viewBox="0 0 1000 1000" enable-background="new 0 0 1000 1000" xml:space="preserve">
    <metadata> Svg Vector Icons : http://www.sfont.cn </metadata>
    <g><path fill="#2E2E2E" d="M990,500c0-270.6-219.4-490-490-490S10,229.4,10,500s219.4,490,490,490S990,770.6,990,500z M898.4,500.8c0,220-178.4,398.4-398.4,398.4c-220,0-398.4-178.4-398.4-398.4c0-220,178.4-398.4,398.4-398.4C720,102.4,898.4,280.8,898.4,500.8z"/><path d="M542.5,629.9c-2.3,4.3-5.3,8.4-9.2,11.9l-0.6,0.6c-8.7,8-19.7,11.9-30.8,11.9c-0.3,0-0.7,0-1,0c-0.3,0-0.7,0-1,0c-11,0-22.1-3.9-30.8-11.9l-0.6-0.6c-3.8-3.5-6.8-7.6-9.2-11.9l-161-174.5c-16.9-18.4-15.8-47.3,2.6-64.2l0.6-0.6c18.4-16.9,47.3-15.8,64.2,2.6l135.2,146.5l135.2-146.5c16.9-18.4,45.8-19.5,64.2-2.6l0.6,0.6c18.4,16.9,19.5,45.8,2.6,64.2L542.5,629.9z"/></g>
</svg>