<?xml version="1.0" encoding="utf-8"?>
<!-- Svg Vector Icons : http://www.sfont.cn -->
<!DOCTYPE svg PUBLIC "-//W3C//DTD SVG 1.1//EN" "http://www.w3.org/Graphics/SVG/1.1/DTD/svg11.dtd">
<svg version="1.1" xmlns="http://www.w3.org/2000/svg" xmlns:xlink="http://www.w3.org/1999/xlink" x="0px" y="0px" viewBox="0 0 1000 1000" enable-background="new 0 0 1000 1000" xml:space="preserve">
	<metadata> Svg Vector Icons : http://www.sfont.cn </metadata>
	<g><path fill="#2E2E2E" d="M885.3,300.5l2.7-7L865.2,273l0,0L734.9,155.7L581.7,17.9l-6.3,2.8C560.7,14.2,544.7,10,530.6,10H163.1c-33.8,0-61.2,27.5-61.2,61.2v857.5c0,33.8,27.5,61.2,61.2,61.2h673.8c33.8,0,61.3-27.5,61.3-61.2V346.9C898.1,331.9,893,315.3,885.3,300.5z M591.9,109.4l195.8,176.2H591.9V109.4z M836.8,928.8H163.1V71.2h367.5v245l30.6,30.6h275.6L836.8,928.8z"/></g>
</svg>