<?xml version="1.0" encoding="utf-8"?>
<!-- Svg Vector Icons : http://www.sfont.cn -->
<!DOCTYPE svg PUBLIC "-//W3C//DTD SVG 1.1//EN" "http://www.w3.org/Graphics/SVG/1.1/DTD/svg11.dtd">
<svg version="1.1" xmlns="http://www.w3.org/2000/svg" xmlns:xlink="http://www.w3.org/1999/xlink" x="0px" y="0px" viewBox="0 0 1000 1000" enable-background="new 0 0 1000 1000" xml:space="preserve">
    <metadata> Svg Vector Icons : http://www.sfont.cn </metadata>
    <g><path fill="#2E2E2E" d="M130.1,558.4c32.5-9.8,50.6-42.5,44.5-75.8c-7.7-42-1.3-88.9,27.9-138.4c33.3-56.6,97-88.6,162.7-88.6h259.6c18.5,0,33.6,15,33.6,33.6v60.2c0,14.8,16.9,23.3,28.8,14.4l197.3-147.5c18.3-13.6,18.3-41,0.1-54.7L687.2,13.6c-11.9-8.9-28.8-0.4-28.8,14.4v63.1c0,18.5-15,33.5-33.6,33.5H364.6c-132.2,0-255.2,78.5-301.2,202.4C40,389.7,35.6,451.2,45.7,507.6C52.7,546.1,92.7,569.7,130.1,558.4z M869.9,441.6c-32.5,9.8-50.6,42.5-44.5,75.8c7.7,42,1.3,88.9-27.9,138.4c-33.3,56.6-97,88.6-162.7,88.6H375.2c-18.5,0-33.6-15-33.6-33.6v-60.2c0-14.8-16.9-23.3-28.8-14.4L115.6,783.6c-18.3,13.6-18.3,41-0.1,54.7l197.3,148.1c11.9,8.9,28.8,0.4,28.8-14.4v-63.1c0-18.5,15-33.5,33.6-33.5h260.2c132.2,0,255.2-78.5,301.2-202.4c23.3-62.7,27.7-124.2,17.6-180.6C947.3,453.9,907.3,430.3,869.9,441.6z"/></g>
</svg>