<?xml version="1.0" encoding="utf-8"?>
<!-- Svg Vector Icons : http://www.sfont.cn -->
<!DOCTYPE svg PUBLIC "-//W3C//DTD SVG 1.1//EN" "http://www.w3.org/Graphics/SVG/1.1/DTD/svg11.dtd">
<svg version="1.1" xmlns="http://www.w3.org/2000/svg" xmlns:xlink="http://www.w3.org/1999/xlink" x="0px" y="0px" viewBox="0 0 1000 1000" enable-background="new 0 0 1000 1000" xml:space="preserve">
    <metadata> Svg Vector Icons : http://www.sfont.cn </metadata>
    <g><path fill="#2E2E2E" d="M853.2,597.5L253.5,973.4l-0.5-0.7c-4.3,2.7-8.8,5.1-13.4,7.2c-0.1,0.1-0.3,0.1-0.5,0.3c-4.5,2-9.2,3.8-14,5.2c-0.3,0.1-0.7,0.1-1,0.3c-2.1,0.6-4.2,1.1-6.3,1.5c-0.4,0.1-0.7,0.2-1.1,0.3c-2.4,0.6-4.8,1-7.2,1.3c-0.4,0.1-0.8,0.1-1.2,0.1c-2,0.3-4,0.6-6.1,0.7c-0.6,0.1-1.3,0.1-1.9,0.1c-2.4,0.1-4.9,0.3-7.4,0.3C130.4,990,91,923.3,91,860.9l0,0l0,0l0-720.9l0,0C91,77.6,130.4,10,192.8,10c23.7,0,45.6,7.3,63.8,19.7l595.6,372.2c34,19.5,56.8,56.1,56.8,98.1C909,541.6,886.6,577.9,853.2,597.5z"/></g>
</svg>